#!OML:ASF F:\VICON\USERDATA\INSTALL\rory3\rory3.ASF
:FULLY-SPECIFIED
:DEGREES
126
root 1.446622777422355 17.894486130542195 56.47448706958287 -4.053773407541138 3.1821070104370452 0.320396693550975
lfemur -3.1123062185612156 -4.077858154949206 -24.63398766968354
ltibia 25.26921454236568
lfoot -9.125854873475909 -2.5525973818449885
ltoes -9.858334636820006
rfemur -21.14885589525863 -2.8489966243243936 20.8469855052657
rtibia 57.10953246155883
rfoot -7.856837594433082 -8.515897429009463
rtoes 6.044393901580842
lowerback nan -0.9597770061931014 -1.7742463740665413
upperback -0.21775755547190107 -1.2379929906082034 1.1532757767721826
thorax -6.0529320900812165 -0.5842508849878887 1.8817642920629922
lowerneck -16.719671757994117 -3.8825174044986195 -1.639461602379585
upperneck 21.21062308777415 -5.389239764298127 2.430860121335926
head 9.668741640890573 -2.3597443232234836 0.4095844561176869
lclavicle -2.5733430502623096e-15 -2.7728129562895364e-15
lhumerus -27.845588712853708 -0.3171557097283668 81.65953418659295
lradius 28.216846757967044
lwrist 8.93044918973072
lhand -29.595930296705106 18.424429281544942
lfingers nan
lthumb -2.7021996054069164 48.88633008577668
rclavicle -2.5426261857329547e-15 -2.7543183755116402e-15
rhumerus -31.131666684794098 -20.737295988975752 -76.15477911077629
rradius 32.521238728615124
rwrist 1.4788913694343142
rhand -17.479174836792243 nan
rfingers nan
rthumb 8.730429154673766 -7.258091049571898
127
root 1.5188124075281983 17.91907754948766 60.85266767237881 -3.641527804646003 3.277777268393601 1.1802996680843707
lfemur -0.5074370839390312 -4.3464929502347145 -25.580458202022445
ltibia 24.928789751838636
lfoot -9.324980310450403 -2.753259621982109
ltoes -10.689932014694968
rfemur -23.152400460848305 -2.917146222950259 20.290267137749858
rtibia 56.83288087194379
rfoot -8.631066235197489 -7.8438532370008875
rtoes 4.712832519990805
lowerback nan -1.2350456988147325 -2.3202042936974827
upperback -0.23045577599928324 -1.6964037909280922 1.134313267434674
thorax -6.049720743224343 -0.8035514678768155 2.3387754296874315
lowerneck -16.81798466996285 -3.8234870563326253 -1.6390162213875414
upperneck 21.18600885042562 -5.287887379891364 2.3978552480476467
head 9.673859151754446 -2.323906272861253 0.4138870957343218
lclavicle -2.570766970354316e-15 -2.769702122702101e-15
lhumerus -27.33686203423242 -0.5351563266004233 81.52512325197505
lradius 28.407420554514687
lwrist 8.651654805392427
lhand -29.57151706717802 18.482195364970355
lfingers nan
lthumb -2.6661327685379317 48.9749537914697
rclavicle -2.5416792687221073e-15 -2.7501306381004587e-15
rhumerus -31.074779143301416 -20.62320342751063 -76.09781778612435
rradius 32.57379707152697
rwrist 1.2367494095176497
rhand -17.491625061479294 nan
rfingers nan
rthumb 8.705163685174858 -7.3202744050493465
128
root 1.5186861370312181 17.917868471400425 59.000214522669296 -3.5443322570396565 2.53620364389373 0.8438939422585392
lfemur 1.9144467158751013 -4.388090833260559 -25.512172800597966
ltibia 24.56500476740676
lfoot -8.931430531820714 -2.626452059314184
ltoes -11.047687440254283
rfemur -23.49804927169324 -2.225539195475089 21.53042070589306
rtibia 54.95104455372886
rfoot -9.258798111210709 -7.38192376760334
rtoes 3.3282504022830017
lowerback nan -1.4021871271074544 -2.201962570386554
upperback -0.28118259799304746 -1.9397613482938454 1.2453509172710706
thorax -6.062279702756947 -0.9325860024213023 2.6985216872370232
lowerneck -16.89444611734756 -3.749693104217979 -1.648316551351806
upperneck 21.207855371501463 -5.161610079253045 2.3200079784788152
head 9.686812016729403 -2.2821794619222393 0.4085335780335537
lclavicle -2.5682851119561465e-15 -2.766407277220682e-15
lhumerus -27.013239234687116 -0.652026592824829 81.42223005793572
lradius 28.48324667226654
lwrist 8.463992019715006
lhand -29.58170005270085 18.492839650682875
lfingers nan
lthumb -2.6301719206792904 49.08620184392546
rclavicle -2.5396316250852292e-15 -2.7445035192777553e-15
rhumerus -31.043379712168072 -20.53648439718012 -76.05417002490766
rradius 32.6135919469446
rwrist 1.1297683907600478
rhand -17.47093673384468 nan
rfingers nan
rthumb 8.728296397853946 -7.268339074276807
129
root 1.5406838320346756 17.924288283149306 59.05220717485034 -3.40811169997689 1.744181020861644 0.41759312801789994
lfemur 4.201616476334019 -4.250600565974483 -25.14422115508596
ltibia 24.189764606247326
lfoot -7.6668990383862266 -3.304526569960788
ltoes -12.94115050621517
rfemur -24.01934774047036 -1.389002253715784 22.484355711346325
rtibia 52.08117103845311
rfoot -9.773227977779758 -7.080134540761265
rtoes 2.0744684372808044
lowerback nan -1.5556341948758987 -2.0410826059482794
upperback -0.3446687206063964 -2.1665618120428864 1.399383739523069
thorax -6.057580390197232 -1.0411789561076628 3.055127563204196
lowerneck -16.942094622758745 -3.676750734253711 -1.6647038205771665
upperneck 21.275519311378755 -5.034313042626076 2.2115548580257247
head 9.709031165141067 -2.2411635787459345 0.39447479375013733
lclavicle -2.5667542581488947e-15 -2.7640332076996693e-15
lhumerus -26.871499957141825 -0.7617133678480221 81.34141489211382
lradius 28.424155290294948
lwrist 8.376843530308475
lhand -29.555294656441422 18.581211322328905
lfingers nan
lthumb -2.592564516489459 49.19989424869846
rclavicle -2.5374227392329223e-15 -2.739727575925979e-15
rhumerus -31.017268240486036 -20.46926694652872 -76.04732776774517
rradius 32.629181585624465
rwrist 1.2281593695202009
rhand -17.468201354391365 nan
rfingers nan
rthumb 8.715893568799743 -7.270479653023536
130
root 1.5631167281142675 17.933199749808303 59.42706964902245 -3.3275610830699605 1.2125029466509867 0.051282857835250883
lfemur 6.2982995248731 -4.067288605584324 -24.725818623366536
ltibia 23.92840840933173
lfoot -6.590420660906993 -3.787444225747583
ltoes -13.408441216977307
rfemur -23.82789384316014 -0.6795283574382407 23.31415738377398
rtibia 48.5858120233803
rfoot -10.228256327890932 -6.878318740611679
rtoes 0.8797790246011232
lowerback nan -1.7300162806533212 -1.9620351192509664
upperback -0.39291449472952394 -2.3912340663624247 1.5766566011899636
thorax -6.016333007962856 -1.1163202413765414 3.478146528508124
lowerneck -16.956936663299626 -3.60775821654669 -1.7014375056825082
upperneck 21.377739198960473 -4.911587841124665 2.0907936224679142
head 9.738566206747377 -2.2022008922864775 0.3767908865429884
lclavicle -2.5661057182816028e-15 -2.762290423933687e-15
lhumerus -26.81158237816964 -0.8462040570663087 81.30631276335286
lradius 28.22277827198553
lwrist 8.391701231792194
lhand -29.565641789715006 18.586851325299985
lfingers nan
lthumb -2.5633077133054036 49.29421972903945
rclavicle -2.5347673731239456e-15 -2.7348827352670762e-15
rhumerus -30.940614011590107 -20.38314926340909 -76.07731546148744
rradius 32.62679009082736
rwrist 1.527163933684148
rhand -17.447554101558516 nan
rfingers nan
rthumb 8.742732719928743 -7.168876328770767
